<svg width="28" height="29" viewBox="0 0 28 29" fill="none" xmlns="http://www.w3.org/2000/svg">
<path d="M13.6666 11H16.3333V6.99998H20.3333V4.33331H16.3333V0.333313H13.6666V4.33331H9.66658V6.99998H13.6666V11ZM8.33325 23C6.86658 23 5.67992 24.2 5.67992 25.6666C5.67992 27.1333 6.86658 28.3333 8.33325 28.3333C9.79992 28.3333 10.9999 27.1333 10.9999 25.6666C10.9999 24.2 9.79992 23 8.33325 23ZM21.6666 23C20.1999 23 19.0133 24.2 19.0133 25.6666C19.0133 27.1333 20.1999 28.3333 21.6666 28.3333C23.1333 28.3333 24.3333 27.1333 24.3333 25.6666C24.3333 24.2 23.1333 23 21.6666 23ZM8.55992 18.6666L8.59992 18.5066L9.79992 16.3333H19.7333C20.7333 16.3333 21.6132 15.7866 22.0666 14.96L27.2132 5.61331L24.8933 4.33331H24.8799L23.4132 6.99998L19.7333 13.6666H10.3733L10.1999 13.3066L7.21325 6.99998L5.94659 4.33331L4.69325 1.66665H0.333252V4.33331H2.99992L7.79992 14.4533L5.99992 17.72C5.78658 18.0933 5.66658 18.5333 5.66658 19C5.66658 20.4666 6.86658 21.6666 8.33325 21.6666H24.3333V19H8.89325C8.71992 19 8.55992 18.8533 8.55992 18.6666Z" fill="black"/>
</svg>
