<svg width="30" height="26" viewBox="0 0 30 26" fill="none" xmlns="http://www.w3.org/2000/svg">
<path d="M21.2037 16.3522H19.8938L19.4295 15.9508C21.0544 14.2561 22.0327 12.056 22.0327 9.66266C22.0327 4.3259 17.2077 0 11.2551 0C5.30258 0 0.477539 4.3259 0.477539 9.66266C0.477539 14.9994 5.30258 19.3253 11.2551 19.3253C13.9247 19.3253 16.3786 18.4483 18.2688 16.9914L18.7165 17.4077V18.582L27.007 26L29.4775 23.785L21.2037 16.3522ZM11.2551 16.3522C7.12648 16.3522 3.79372 13.3642 3.79372 9.66266C3.79372 5.96112 7.12648 2.97313 11.2551 2.97313C15.3838 2.97313 18.7165 5.96112 18.7165 9.66266C18.7165 13.3642 15.3838 16.3522 11.2551 16.3522Z" fill="black"/>
</svg>
